<?xml version="1.0"?>
<!-- Generated by SVGo -->
<svg width="512" height="512"
     xmlns="http://www.w3.org/2000/svg"
     xmlns:xlink="http://www.w3.org/1999/xlink">
<rect x="0" y="0" width="512" height="512" style="fill:none; stroke:blue" />
<rect x="0" y="0" width="256" height="256" style="fill:none; stroke:blue" />
<rect x="0" y="0" width="128" height="128" style="fill:none; stroke:blue" />
<circle cx="10" cy="10" r="2" />
<text x="13" y="10" style="text-anchor:middle;font-size:10px;fill:blue" >(10,10)</text>
<rect x="128" y="0" width="128" height="128" style="fill:none; stroke:blue" />
<circle cx="130" cy="10" r="2" />
<text x="133" y="10" style="text-anchor:middle;font-size:10px;fill:blue" >(130,10)</text>
<rect x="0" y="128" width="128" height="128" style="fill:none; stroke:blue" />
<rect x="128" y="128" width="128" height="128" style="fill:none; stroke:blue" />
<rect x="256" y="0" width="256" height="256" style="fill:none; stroke:blue" />
<rect x="0" y="256" width="256" height="256" style="fill:none; stroke:blue" />
<rect x="256" y="256" width="256" height="256" style="fill:none; stroke:blue" />
<rect x="256" y="256" width="128" height="128" style="fill:none; stroke:blue" />
<rect x="384" y="256" width="128" height="128" style="fill:none; stroke:blue" />
<rect x="256" y="384" width="128" height="128" style="fill:none; stroke:blue" />
<rect x="256" y="384" width="64" height="64" style="fill:none; stroke:blue" />
<rect x="320" y="384" width="64" height="64" style="fill:none; stroke:blue" />
<rect x="256" y="448" width="64" height="64" style="fill:none; stroke:blue" />
<rect x="256" y="448" width="32" height="32" style="fill:none; stroke:blue" />
<rect x="288" y="448" width="32" height="32" style="fill:none; stroke:blue" />
<rect x="256" y="480" width="32" height="32" style="fill:none; stroke:blue" />
<rect x="256" y="480" width="16" height="16" style="fill:none; stroke:blue" />
<rect x="272" y="480" width="16" height="16" style="fill:none; stroke:blue" />
<rect x="256" y="496" width="16" height="16" style="fill:none; stroke:blue" />
<rect x="256" y="496" width="8" height="8" style="fill:none; stroke:blue" />
<circle cx="257" cy="500" r="2" />
<text x="260" y="500" style="text-anchor:middle;font-size:10px;fill:blue" >(257,500)</text>
<rect x="264" y="496" width="8" height="8" style="fill:none; stroke:blue" />
<rect x="256" y="504" width="8" height="8" style="fill:none; stroke:blue" />
<circle cx="260" cy="504" r="2" />
<text x="263" y="504" style="text-anchor:middle;font-size:10px;fill:blue" >(260,504)</text>
<rect x="264" y="504" width="8" height="8" style="fill:none; stroke:blue" />
<rect x="272" y="496" width="16" height="16" style="fill:none; stroke:blue" />
<circle cx="280" cy="504" r="2" />
<text x="283" y="504" style="text-anchor:middle;font-size:10px;fill:blue" >(280,504)</text>
<rect x="288" y="480" width="32" height="32" style="fill:none; stroke:blue" />
<rect x="320" y="448" width="64" height="64" style="fill:none; stroke:blue" />
<rect x="384" y="384" width="128" height="128" style="fill:none; stroke:blue" />
<circle cx="500" cy="501" r="2" />
<text x="503" y="501" style="text-anchor:middle;font-size:10px;fill:blue" >(500,501)</text>
<rect x="0" y="0" width="200" height="200" style="fill:none; stroke:red" />
<circle cx="10" cy="10" r="5" style="fill:red; stroke:red" />
<circle cx="130" cy="10" r="5" style="fill:red; stroke:red" />
</svg>
